<svg width="115" height="84" viewBox="0 0 115 84" fill="none" xmlns="http://www.w3.org/2000/svg">
<path d="M0 16C0 11.6 5 11.5 7.5 11.5C40.1667 11.6667 106.4 12 110 12C113.6 12 114.5 14.6667 114.5 16V79.5C114.5 83.1 112.167 84 111 84H4.5C0.9 84 0 81.3333 0 80V16Z" fill="#EB5D32"/>
<rect x="51.5" y="68" width="12" height="16" fill="#CF2C2C"/>
<rect x="7.5" y="62" width="100" height="15" rx="3" fill="#DFBE91"/>
<path d="M82.2576 0C73.1909 0 61.6515 3.69195 57.0152 5.53793L56.5017 72.2781C56.5006 72.4177 56.5564 72.5517 56.6563 72.6493C56.8558 72.8443 57.1745 72.8443 57.374 72.6493L57.4461 72.5788C57.5017 72.5245 57.5673 72.481 57.6391 72.4511C64.815 69.4607 72.0038 67.963 81.7424 67.4621C89.5727 67.0593 99.4293 69.9793 103.379 71.4897L104.525 71.8632C104.79 71.9493 105.066 71.9931 105.344 71.9931C105.746 71.9931 106.142 71.9014 106.503 71.7249L106.806 71.5772C106.924 71.5192 107.033 71.4426 107.127 71.3503C107.366 71.1175 107.5 70.7984 107.5 70.4652V69.9793V6.89432C107.5 6.07535 107.006 5.33854 106.238 5.05415C101.004 3.11613 90.5872 0 82.2576 0Z" fill="#F9D793"/>
<path d="M32 1C43.3502 1 53.392 4.19133 57.2541 5.89007C57.4065 5.95713 57.5 6.10694 57.5 6.27351V71.5V72.1464C57.5 72.3728 57.4101 72.5899 57.25 72.75L57.1768 72.8232C57.0636 72.9364 56.9101 73 56.75 73C56.5899 73 56.4364 72.9364 56.3232 72.8232L56.1407 72.6407C56.0475 72.5475 55.9399 72.4699 55.822 72.411L55 72C50 70 38 67.5 29.5 67.5C22.7 67.5 14.6667 70.1667 11.5 71.5L11.3944 71.5528C10.8062 71.8469 10.1576 72 9.5 72H9C8.67986 72 8.37282 71.8728 8.14645 71.6464L8 71.5L7.95457 71.4546C7.66351 71.1635 7.5 70.7688 7.5 70.3571V7.5V7C7.5 6.67986 7.62718 6.37282 7.85355 6.14645L7.85925 6.14075C7.95247 6.04752 8.06011 5.96994 8.17803 5.91098L11 4.5C13.1667 3.33333 20.4 1 32 1Z" fill="#FCEBBD"/>
</svg>
